<?xml version="1.0" encoding="iso-8859-1"?><svg xmlns="http://www.w3.org/2000/svg" xmlns:xlink="http://www.w3.org/1999/xlink"><symbol viewBox="0 0 58 58" id="browser" xmlns="http://www.w3.org/2000/svg"><path fill="#ecf0f1" d="M0 0h58v58H0z"/><path fill="#546a79" d="M0 0h58v12H0z"/><circle cx="6" cy="6" r="3" fill="#ed7161"/><circle cx="15" cy="6" r="3" fill="#f0c419"/><circle cx="24" cy="6" r="3" fill="#4fba6f"/><path fill="#556080" d="M0 12h12v46H0z"/><g fill="#768e9b"><path d="M4 19h4a1 1 0 1 0 0-2H4a1 1 0 1 0 0 2zM8 22H4a1 1 0 1 0 0 2h4a1 1 0 1 0 0-2zM8 27H4a1 1 0 1 0 0 2h4a1 1 0 1 0 0-2zM8 32H4a1 1 0 1 0 0 2h4a1 1 0 1 0 0-2zM8 37H4a1 1 0 1 0 0 2h4a1 1 0 1 0 0-2zM8 42H4a1 1 0 1 0 0 2h4a1 1 0 1 0 0-2zM8 47H4a1 1 0 1 0 0 2h4a1 1 0 1 0 0-2zM8 52H4a1 1 0 1 0 0 2h4a1 1 0 1 0 0-2z"/></g><path fill="#9777a8" d="M18 18h14v14H18z"/><path fill="#f29c1f" d="M38 18h14v14H38z"/><path fill="#26b99a" d="M18 38h14v14H18z"/><path fill="#ed7161" d="M38 38h14v14H38z"/></symbol></svg>